<svg xmlns="http://www.w3.org/2000/svg" viewBox="0 0 28 20" width="28" height="20" role="img" aria-label="United States">
  <rect width="28" height="20" fill="#fff"/>
  <!-- red stripes -->
  <g fill="#b22234">
    <rect y="0" width="28" height="1.538"/>
    <rect y="3.076" width="28" height="1.538"/>
    <rect y="6.153" width="28" height="1.538"/>
    <rect y="9.23" width="28" height="1.538"/>
    <rect y="12.307" width="28" height="1.538"/>
    <rect y="15.384" width="28" height="1.538"/>
    <rect y="18.461" width="28" height="1.539"/>
  </g>
  <!-- blue canton -->
  <rect x="0" y="0" width="11.2" height="10.77" fill="#3c3b6e"/>
  <!-- simple star dots -->
  <g fill="#fff" opacity="0.95">
    <circle cx="1.6" cy="1.4" r="0.35"/><circle cx="3.2" cy="1.4" r="0.35"/><circle cx="4.8" cy="1.4" r="0.35"/><circle cx="6.4" cy="1.4" r="0.35"/><circle cx="8.0" cy="1.4" r="0.35"/><circle cx="9.6" cy="1.4" r="0.35"/>
    <circle cx="2.4" cy="2.6" r="0.35"/><circle cx="4.0" cy="2.6" r="0.35"/><circle cx="5.6" cy="2.6" r="0.35"/><circle cx="7.2" cy="2.6" r="0.35"/><circle cx="8.8" cy="2.6" r="0.35"/>
    <circle cx="1.6" cy="3.8" r="0.35"/><circle cx="3.2" cy="3.8" r="0.35"/><circle cx="4.8" cy="3.8" r="0.35"/><circle cx="6.4" cy="3.8" r="0.35"/><circle cx="8.0" cy="3.8" r="0.35"/><circle cx="9.6" cy="3.8" r="0.35"/>
    <circle cx="2.4" cy="5.0" r="0.35"/><circle cx="4.0" cy="5.0" r="0.35"/><circle cx="5.6" cy="5.0" r="0.35"/><circle cx="7.2" cy="5.0" r="0.35"/><circle cx="8.8" cy="5.0" r="0.35"/>
    <circle cx="1.6" cy="6.2" r="0.35"/><circle cx="3.2" cy="6.2" r="0.35"/><circle cx="4.8" cy="6.2" r="0.35"/><circle cx="6.4" cy="6.2" r="0.35"/><circle cx="8.0" cy="6.2" r="0.35"/><circle cx="9.6" cy="6.2" r="0.35"/>
    <circle cx="2.4" cy="7.4" r="0.35"/><circle cx="4.0" cy="7.4" r="0.35"/><circle cx="5.6" cy="7.4" r="0.35"/><circle cx="7.2" cy="7.4" r="0.35"/><circle cx="8.8" cy="7.4" r="0.35"/>
    <circle cx="1.6" cy="8.6" r="0.35"/><circle cx="3.2" cy="8.6" r="0.35"/><circle cx="4.8" cy="8.6" r="0.35"/><circle cx="6.4" cy="8.6" r="0.35"/><circle cx="8.0" cy="8.6" r="0.35"/><circle cx="9.6" cy="8.6" r="0.35"/>
  </g>
</svg>
